<mxfile host="65bd71144e">
    <diagram id="ajTyaf3byIjhU17QI6s6" name="Page-1">
        <mxGraphModel dx="779" dy="1404" grid="1" gridSize="8" guides="1" tooltips="1" connect="1" arrows="1" fold="1" page="1" pageScale="1" pageWidth="827" pageHeight="1169" math="0" shadow="0">
            <root>
                <mxCell id="0"/>
                <mxCell id="1" parent="0"/>
                <mxCell id="2" value="Cliente " style="swimlane;fontStyle=0;childLayout=stackLayout;horizontal=1;startSize=26;fillColor=none;horizontalStack=0;resizeParent=1;resizeParentMax=0;resizeLast=0;collapsible=1;marginBottom=0;" parent="1" vertex="1">
                    <mxGeometry x="65" y="224" width="170" height="320" as="geometry"/>
                </mxCell>
                <mxCell id="3" value="_id: Object" style="text;strokeColor=none;fillColor=none;align=left;verticalAlign=top;spacingLeft=4;spacingRight=4;overflow=hidden;rotatable=0;points=[[0,0.5],[1,0.5]];portConstraint=eastwest;" parent="2" vertex="1">
                    <mxGeometry y="26" width="170" height="26" as="geometry"/>
                </mxCell>
                <mxCell id="4" value="nome: String" style="text;strokeColor=none;fillColor=none;align=left;verticalAlign=top;spacingLeft=4;spacingRight=4;overflow=hidden;rotatable=0;points=[[0,0.5],[1,0.5]];portConstraint=eastwest;" parent="2" vertex="1">
                    <mxGeometry y="52" width="170" height="26" as="geometry"/>
                </mxCell>
                <mxCell id="5" value="cpf: String (unique)" style="text;strokeColor=none;fillColor=none;align=left;verticalAlign=top;spacingLeft=4;spacingRight=4;overflow=hidden;rotatable=0;points=[[0,0.5],[1,0.5]];portConstraint=eastwest;" parent="2" vertex="1">
                    <mxGeometry y="78" width="170" height="22" as="geometry"/>
                </mxCell>
                <mxCell id="32" value="data_nascimento: DateTime?" style="text;strokeColor=none;fillColor=none;align=left;verticalAlign=top;spacingLeft=4;spacingRight=4;overflow=hidden;rotatable=0;points=[[0,0.5],[1,0.5]];portConstraint=eastwest;" parent="2" vertex="1">
                    <mxGeometry y="100" width="170" height="22" as="geometry"/>
                </mxCell>
                <mxCell id="22" value="logradouro: String" style="text;strokeColor=none;fillColor=none;align=left;verticalAlign=top;spacingLeft=4;spacingRight=4;overflow=hidden;rotatable=0;points=[[0,0.5],[1,0.5]];portConstraint=eastwest;" parent="2" vertex="1">
                    <mxGeometry y="122" width="170" height="22" as="geometry"/>
                </mxCell>
                <mxCell id="23" value="num_casa: String" style="text;strokeColor=none;fillColor=none;align=left;verticalAlign=top;spacingLeft=4;spacingRight=4;overflow=hidden;rotatable=0;points=[[0,0.5],[1,0.5]];portConstraint=eastwest;" parent="2" vertex="1">
                    <mxGeometry y="144" width="170" height="22" as="geometry"/>
                </mxCell>
                <mxCell id="24" value="bairro: String" style="text;strokeColor=none;fillColor=none;align=left;verticalAlign=top;spacingLeft=4;spacingRight=4;overflow=hidden;rotatable=0;points=[[0,0.5],[1,0.5]];portConstraint=eastwest;" parent="2" vertex="1">
                    <mxGeometry y="166" width="170" height="22" as="geometry"/>
                </mxCell>
                <mxCell id="25" value="complemento: String?" style="text;strokeColor=none;fillColor=none;align=left;verticalAlign=top;spacingLeft=4;spacingRight=4;overflow=hidden;rotatable=0;points=[[0,0.5],[1,0.5]];portConstraint=eastwest;" parent="2" vertex="1">
                    <mxGeometry y="188" width="170" height="22" as="geometry"/>
                </mxCell>
                <mxCell id="26" value="município: String" style="text;strokeColor=none;fillColor=none;align=left;verticalAlign=top;spacingLeft=4;spacingRight=4;overflow=hidden;rotatable=0;points=[[0,0.5],[1,0.5]];portConstraint=eastwest;" parent="2" vertex="1">
                    <mxGeometry y="210" width="170" height="22" as="geometry"/>
                </mxCell>
                <mxCell id="27" value="uf: String" style="text;strokeColor=none;fillColor=none;align=left;verticalAlign=top;spacingLeft=4;spacingRight=4;overflow=hidden;rotatable=0;points=[[0,0.5],[1,0.5]];portConstraint=eastwest;" parent="2" vertex="1">
                    <mxGeometry y="232" width="170" height="22" as="geometry"/>
                </mxCell>
                <mxCell id="111" value="cep: String" style="text;strokeColor=none;fillColor=none;align=left;verticalAlign=top;spacingLeft=4;spacingRight=4;overflow=hidden;rotatable=0;points=[[0,0.5],[1,0.5]];portConstraint=eastwest;" parent="2" vertex="1">
                    <mxGeometry y="254" width="170" height="22" as="geometry"/>
                </mxCell>
                <mxCell id="28" value="telefone: String" style="text;strokeColor=none;fillColor=none;align=left;verticalAlign=top;spacingLeft=4;spacingRight=4;overflow=hidden;rotatable=0;points=[[0,0.5],[1,0.5]];portConstraint=eastwest;" parent="2" vertex="1">
                    <mxGeometry y="276" width="170" height="22" as="geometry"/>
                </mxCell>
                <mxCell id="29" value="email: String" style="text;strokeColor=none;fillColor=none;align=left;verticalAlign=top;spacingLeft=4;spacingRight=4;overflow=hidden;rotatable=0;points=[[0,0.5],[1,0.5]];portConstraint=eastwest;" parent="2" vertex="1">
                    <mxGeometry y="298" width="170" height="22" as="geometry"/>
                </mxCell>
                <mxCell id="6" value="Venda" style="swimlane;fontStyle=0;childLayout=stackLayout;horizontal=1;startSize=26;fillColor=none;horizontalStack=0;resizeParent=1;resizeParentMax=0;resizeLast=0;collapsible=1;marginBottom=0;" parent="1" vertex="1">
                    <mxGeometry x="288" y="552" width="140" height="156" as="geometry"/>
                </mxCell>
                <mxCell id="7" value="_id: ObjectId" style="text;strokeColor=none;fillColor=none;align=left;verticalAlign=top;spacingLeft=4;spacingRight=4;overflow=hidden;rotatable=0;points=[[0,0.5],[1,0.5]];portConstraint=eastwest;" parent="6" vertex="1">
                    <mxGeometry y="26" width="140" height="26" as="geometry"/>
                </mxCell>
                <mxCell id="8" value="num_venda: Number" style="text;strokeColor=none;fillColor=none;align=left;verticalAlign=top;spacingLeft=4;spacingRight=4;overflow=hidden;rotatable=0;points=[[0,0.5],[1,0.5]];portConstraint=eastwest;" parent="6" vertex="1">
                    <mxGeometry y="52" width="140" height="26" as="geometry"/>
                </mxCell>
                <mxCell id="116" value="data_venda: DateTime" style="text;strokeColor=none;fillColor=none;align=left;verticalAlign=top;spacingLeft=4;spacingRight=4;overflow=hidden;rotatable=0;points=[[0,0.5],[1,0.5]];portConstraint=eastwest;" parent="6" vertex="1">
                    <mxGeometry y="78" width="140" height="26" as="geometry"/>
                </mxCell>
                <mxCell id="9" value="itens: [ItemVenda]" style="text;strokeColor=none;fillColor=none;align=left;verticalAlign=top;spacingLeft=4;spacingRight=4;overflow=hidden;rotatable=0;points=[[0,0.5],[1,0.5]];portConstraint=eastwest;" parent="6" vertex="1">
                    <mxGeometry y="104" width="140" height="26" as="geometry"/>
                </mxCell>
                <mxCell id="67" value="cliente: Cliente" style="text;strokeColor=none;fillColor=none;align=left;verticalAlign=top;spacingLeft=4;spacingRight=4;overflow=hidden;rotatable=0;points=[[0,0.5],[1,0.5]];portConstraint=eastwest;" parent="6" vertex="1">
                    <mxGeometry y="130" width="140" height="26" as="geometry"/>
                </mxCell>
                <mxCell id="10" value="Fornecedor&#10;" style="swimlane;fontStyle=0;childLayout=stackLayout;horizontal=1;startSize=26;fillColor=none;horizontalStack=0;resizeParent=1;resizeParentMax=0;resizeLast=0;collapsible=1;marginBottom=0;" parent="1" vertex="1">
                    <mxGeometry x="777" y="224" width="140" height="370" as="geometry"/>
                </mxCell>
                <mxCell id="11" value="_Id: ObjectId" style="text;strokeColor=none;fillColor=none;align=left;verticalAlign=top;spacingLeft=4;spacingRight=4;overflow=hidden;rotatable=0;points=[[0,0.5],[1,0.5]];portConstraint=eastwest;" parent="10" vertex="1">
                    <mxGeometry y="26" width="140" height="26" as="geometry"/>
                </mxCell>
                <mxCell id="12" value="razao_social: String" style="text;strokeColor=none;fillColor=none;align=left;verticalAlign=top;spacingLeft=4;spacingRight=4;overflow=hidden;rotatable=0;points=[[0,0.5],[1,0.5]];portConstraint=eastwest;" parent="10" vertex="1">
                    <mxGeometry y="52" width="140" height="26" as="geometry"/>
                </mxCell>
                <mxCell id="13" value="nome_fantasia: String" style="text;strokeColor=none;fillColor=none;align=left;verticalAlign=top;spacingLeft=4;spacingRight=4;overflow=hidden;rotatable=0;points=[[0,0.5],[1,0.5]];portConstraint=eastwest;" parent="10" vertex="1">
                    <mxGeometry y="78" width="140" height="26" as="geometry"/>
                </mxCell>
                <mxCell id="39" value="cnpj: String  (unique)" style="text;strokeColor=none;fillColor=none;align=left;verticalAlign=top;spacingLeft=4;spacingRight=4;overflow=hidden;rotatable=0;points=[[0,0.5],[1,0.5]];portConstraint=eastwest;" parent="10" vertex="1">
                    <mxGeometry y="104" width="140" height="26" as="geometry"/>
                </mxCell>
                <mxCell id="55" value="e-mail: String" style="text;strokeColor=none;fillColor=none;align=left;verticalAlign=top;spacingLeft=4;spacingRight=4;overflow=hidden;rotatable=0;points=[[0,0.5],[1,0.5]];portConstraint=eastwest;" parent="10" vertex="1">
                    <mxGeometry y="130" width="140" height="26" as="geometry"/>
                </mxCell>
                <mxCell id="40" value="logradouro: String" style="text;strokeColor=none;fillColor=none;align=left;verticalAlign=top;spacingLeft=4;spacingRight=4;overflow=hidden;rotatable=0;points=[[0,0.5],[1,0.5]];portConstraint=eastwest;" parent="10" vertex="1">
                    <mxGeometry y="156" width="140" height="26" as="geometry"/>
                </mxCell>
                <mxCell id="41" value="num_casa: String" style="text;strokeColor=none;fillColor=none;align=left;verticalAlign=top;spacingLeft=4;spacingRight=4;overflow=hidden;rotatable=0;points=[[0,0.5],[1,0.5]];portConstraint=eastwest;" parent="10" vertex="1">
                    <mxGeometry y="182" width="140" height="26" as="geometry"/>
                </mxCell>
                <mxCell id="51" value="complemento: String" style="text;strokeColor=none;fillColor=none;align=left;verticalAlign=top;spacingLeft=4;spacingRight=4;overflow=hidden;rotatable=0;points=[[0,0.5],[1,0.5]];portConstraint=eastwest;" parent="10" vertex="1">
                    <mxGeometry y="208" width="140" height="32" as="geometry"/>
                </mxCell>
                <mxCell id="42" value="bairro: String" style="text;strokeColor=none;fillColor=none;align=left;verticalAlign=top;spacingLeft=4;spacingRight=4;overflow=hidden;rotatable=0;points=[[0,0.5],[1,0.5]];portConstraint=eastwest;" parent="10" vertex="1">
                    <mxGeometry y="240" width="140" height="26" as="geometry"/>
                </mxCell>
                <mxCell id="52" value="municipio: String" style="text;strokeColor=none;fillColor=none;align=left;verticalAlign=top;spacingLeft=4;spacingRight=4;overflow=hidden;rotatable=0;points=[[0,0.5],[1,0.5]];portConstraint=eastwest;" parent="10" vertex="1">
                    <mxGeometry y="266" width="140" height="26" as="geometry"/>
                </mxCell>
                <mxCell id="53" value="uf: String" style="text;strokeColor=none;fillColor=none;align=left;verticalAlign=top;spacingLeft=4;spacingRight=4;overflow=hidden;rotatable=0;points=[[0,0.5],[1,0.5]];portConstraint=eastwest;" parent="10" vertex="1">
                    <mxGeometry y="292" width="140" height="26" as="geometry"/>
                </mxCell>
                <mxCell id="135" value="CEP: String" style="text;strokeColor=none;fillColor=none;align=left;verticalAlign=top;spacingLeft=4;spacingRight=4;overflow=hidden;rotatable=0;points=[[0,0.5],[1,0.5]];portConstraint=eastwest;" vertex="1" parent="10">
                    <mxGeometry y="318" width="140" height="26" as="geometry"/>
                </mxCell>
                <mxCell id="54" value="telefone: String" style="text;strokeColor=none;fillColor=none;align=left;verticalAlign=top;spacingLeft=4;spacingRight=4;overflow=hidden;rotatable=0;points=[[0,0.5],[1,0.5]];portConstraint=eastwest;" parent="10" vertex="1">
                    <mxGeometry y="344" width="140" height="26" as="geometry"/>
                </mxCell>
                <mxCell id="14" value="Produto" style="swimlane;fontStyle=0;childLayout=stackLayout;horizontal=1;startSize=26;fillColor=none;horizontalStack=0;resizeParent=1;resizeParentMax=0;resizeLast=0;collapsible=1;marginBottom=0;" parent="1" vertex="1">
                    <mxGeometry x="457" y="224" width="144" height="234" as="geometry"/>
                </mxCell>
                <mxCell id="15" value="_id: ObjectId" style="text;strokeColor=none;fillColor=none;align=left;verticalAlign=top;spacingLeft=4;spacingRight=4;overflow=hidden;rotatable=0;points=[[0,0.5],[1,0.5]];portConstraint=eastwest;" parent="14" vertex="1">
                    <mxGeometry y="26" width="144" height="26" as="geometry"/>
                </mxCell>
                <mxCell id="16" value="nome: String" style="text;strokeColor=none;fillColor=none;align=left;verticalAlign=top;spacingLeft=4;spacingRight=4;overflow=hidden;rotatable=0;points=[[0,0.5],[1,0.5]];portConstraint=eastwest;" parent="14" vertex="1">
                    <mxGeometry y="52" width="144" height="26" as="geometry"/>
                </mxCell>
                <mxCell id="112" value="marca: String" style="text;strokeColor=none;fillColor=none;align=left;verticalAlign=top;spacingLeft=4;spacingRight=4;overflow=hidden;rotatable=0;points=[[0,0.5],[1,0.5]];portConstraint=eastwest;" parent="14" vertex="1">
                    <mxGeometry y="78" width="144" height="26" as="geometry"/>
                </mxCell>
                <mxCell id="113" value="especificacao: String" style="text;strokeColor=none;fillColor=none;align=left;verticalAlign=top;spacingLeft=4;spacingRight=4;overflow=hidden;rotatable=0;points=[[0,0.5],[1,0.5]];portConstraint=eastwest;" parent="14" vertex="1">
                    <mxGeometry y="104" width="144" height="26" as="geometry"/>
                </mxCell>
                <mxCell id="17" value="unidade_medida: String" style="text;strokeColor=none;fillColor=none;align=left;verticalAlign=top;spacingLeft=4;spacingRight=4;overflow=hidden;rotatable=0;points=[[0,0.5],[1,0.5]];portConstraint=eastwest;" parent="14" vertex="1">
                    <mxGeometry y="130" width="144" height="26" as="geometry"/>
                </mxCell>
                <mxCell id="35" value="preco_unitario: Double" style="text;strokeColor=none;fillColor=none;align=left;verticalAlign=top;spacingLeft=4;spacingRight=4;overflow=hidden;rotatable=0;points=[[0,0.5],[1,0.5]];portConstraint=eastwest;" parent="14" vertex="1">
                    <mxGeometry y="156" width="144" height="26" as="geometry"/>
                </mxCell>
                <mxCell id="36" value="qtd_estoque: Double" style="text;strokeColor=none;fillColor=none;align=left;verticalAlign=top;spacingLeft=4;spacingRight=4;overflow=hidden;rotatable=0;points=[[0,0.5],[1,0.5]];portConstraint=eastwest;" parent="14" vertex="1">
                    <mxGeometry y="182" width="144" height="26" as="geometry"/>
                </mxCell>
                <mxCell id="117" value="categoria: Categoria" style="text;strokeColor=none;fillColor=none;align=left;verticalAlign=top;spacingLeft=4;spacingRight=4;overflow=hidden;rotatable=0;points=[[0,0.5],[1,0.5]];portConstraint=eastwest;" parent="14" vertex="1">
                    <mxGeometry y="208" width="144" height="26" as="geometry"/>
                </mxCell>
                <mxCell id="56" value="ItemVenda" style="swimlane;fontStyle=0;childLayout=stackLayout;horizontal=1;startSize=26;fillColor=none;horizontalStack=0;resizeParent=1;resizeParentMax=0;resizeLast=0;collapsible=1;marginBottom=0;" parent="1" vertex="1">
                    <mxGeometry x="560" y="578" width="140" height="104" as="geometry"/>
                </mxCell>
                <mxCell id="58" value="num_item: Number" style="text;strokeColor=none;fillColor=none;align=left;verticalAlign=top;spacingLeft=4;spacingRight=4;overflow=hidden;rotatable=0;points=[[0,0.5],[1,0.5]];portConstraint=eastwest;" parent="56" vertex="1">
                    <mxGeometry y="26" width="140" height="26" as="geometry"/>
                </mxCell>
                <mxCell id="118" value="quantidade: Number" style="text;strokeColor=none;fillColor=none;align=left;verticalAlign=top;spacingLeft=4;spacingRight=4;overflow=hidden;rotatable=0;points=[[0,0.5],[1,0.5]];portConstraint=eastwest;" parent="56" vertex="1">
                    <mxGeometry y="52" width="140" height="26" as="geometry"/>
                </mxCell>
                <mxCell id="59" value="produto: Produto" style="text;strokeColor=none;fillColor=none;align=left;verticalAlign=top;spacingLeft=4;spacingRight=4;overflow=hidden;rotatable=0;points=[[0,0.5],[1,0.5]];portConstraint=eastwest;" parent="56" vertex="1">
                    <mxGeometry y="78" width="140" height="26" as="geometry"/>
                </mxCell>
                <mxCell id="68" value="" style="endArrow=diamondThin;endFill=1;endSize=24;html=1;fillColor=#000000;entryX=0.227;entryY=0.011;entryDx=0;entryDy=0;entryPerimeter=0;exitX=0.75;exitY=0;exitDx=0;exitDy=0;" parent="1" source="2" target="6" edge="1">
                    <mxGeometry width="160" relative="1" as="geometry">
                        <mxPoint x="320" y="192" as="sourcePoint"/>
                        <mxPoint x="320" y="496" as="targetPoint"/>
                        <Array as="points">
                            <mxPoint x="193" y="192"/>
                            <mxPoint x="320" y="192"/>
                        </Array>
                    </mxGeometry>
                </mxCell>
                <mxCell id="102" value="Categoria" style="swimlane;fontStyle=0;childLayout=stackLayout;horizontal=1;startSize=26;fillColor=none;horizontalStack=0;resizeParent=1;resizeParentMax=0;resizeLast=0;collapsible=1;marginBottom=0;" parent="1" vertex="1">
                    <mxGeometry x="457" y="32" width="140" height="78" as="geometry"/>
                </mxCell>
                <mxCell id="103" value="_id: Object" style="text;strokeColor=none;fillColor=none;align=left;verticalAlign=top;spacingLeft=4;spacingRight=4;overflow=hidden;rotatable=0;points=[[0,0.5],[1,0.5]];portConstraint=eastwest;" parent="102" vertex="1">
                    <mxGeometry y="26" width="140" height="26" as="geometry"/>
                </mxCell>
                <mxCell id="104" value="descricao: String" style="text;strokeColor=none;fillColor=none;align=left;verticalAlign=top;spacingLeft=4;spacingRight=4;overflow=hidden;rotatable=0;points=[[0,0.5],[1,0.5]];portConstraint=eastwest;" parent="102" vertex="1">
                    <mxGeometry y="52" width="140" height="26" as="geometry"/>
                </mxCell>
                <mxCell id="106" value="" style="endArrow=diamondThin;endFill=1;endSize=24;html=1;fillColor=#000000;exitX=0.357;exitY=0;exitDx=0;exitDy=0;exitPerimeter=0;" parent="1" source="10" edge="1">
                    <mxGeometry width="160" relative="1" as="geometry">
                        <mxPoint x="827" y="200" as="sourcePoint"/>
                        <mxPoint x="544" y="224" as="targetPoint"/>
                        <Array as="points">
                            <mxPoint x="827" y="160"/>
                            <mxPoint x="544" y="160"/>
                        </Array>
                    </mxGeometry>
                </mxCell>
                <mxCell id="114" value="" style="endArrow=diamondThin;endFill=1;endSize=24;html=1;fillColor=#000000;exitX=0.861;exitY=0.004;exitDx=0;exitDy=0;exitPerimeter=0;entryX=0.569;entryY=0.011;entryDx=0;entryDy=0;entryPerimeter=0;" parent="1" source="14" target="56" edge="1">
                    <mxGeometry width="160" relative="1" as="geometry">
                        <mxPoint x="580.984" y="224.93599999999998" as="sourcePoint"/>
                        <mxPoint x="393" y="552" as="targetPoint"/>
                        <Array as="points">
                            <mxPoint x="581" y="192"/>
                            <mxPoint x="640" y="192"/>
                            <mxPoint x="640" y="512"/>
                            <mxPoint x="640" y="544"/>
                        </Array>
                    </mxGeometry>
                </mxCell>
                <mxCell id="120" value="0..*" style="edgeLabel;html=1;align=center;verticalAlign=middle;resizable=0;points=[];" parent="114" vertex="1" connectable="0">
                    <mxGeometry x="0.9115" y="1" relative="1" as="geometry">
                        <mxPoint x="12" y="-14" as="offset"/>
                    </mxGeometry>
                </mxCell>
                <mxCell id="115" value="" style="endArrow=diamondThin;endFill=1;endSize=24;html=1;fillColor=#000000;entryX=0.25;entryY=0;entryDx=0;entryDy=0;exitX=0.25;exitY=0;exitDx=0;exitDy=0;" parent="1" source="102" target="14" edge="1">
                    <mxGeometry width="160" relative="1" as="geometry">
                        <mxPoint x="493" y="-48" as="sourcePoint"/>
                        <mxPoint x="496" y="16" as="targetPoint"/>
                        <Array as="points">
                            <mxPoint x="493"/>
                            <mxPoint x="384"/>
                            <mxPoint x="384" y="160"/>
                            <mxPoint x="493" y="160"/>
                        </Array>
                    </mxGeometry>
                </mxCell>
                <mxCell id="121" value="0..*" style="edgeLabel;html=1;align=center;verticalAlign=middle;resizable=0;points=[];" parent="1" vertex="1" connectable="0">
                    <mxGeometry x="331.230945022338" y="516.2253028460384" as="geometry"/>
                </mxCell>
                <mxCell id="122" value="" style="endArrow=diamondThin;endFill=1;endSize=24;html=1;" parent="1" edge="1">
                    <mxGeometry width="160" relative="1" as="geometry">
                        <mxPoint x="384" y="552" as="sourcePoint"/>
                        <mxPoint x="576" y="576" as="targetPoint"/>
                        <Array as="points">
                            <mxPoint x="383" y="512"/>
                            <mxPoint x="576" y="512"/>
                        </Array>
                    </mxGeometry>
                </mxCell>
                <mxCell id="123" value="1" style="edgeLabel;html=1;align=center;verticalAlign=middle;resizable=0;points=[];" parent="1" vertex="1" connectable="0">
                    <mxGeometry x="380.230945022338" y="548.2253028460384" as="geometry">
                        <mxPoint x="-4" y="-4" as="offset"/>
                    </mxGeometry>
                </mxCell>
                <mxCell id="124" value="0..*" style="edgeLabel;html=1;align=center;verticalAlign=middle;resizable=0;points=[];" parent="1" vertex="1" connectable="0">
                    <mxGeometry x="562.8632735624149" y="543.1375251352122" as="geometry"/>
                </mxCell>
                <mxCell id="125" value="1" style="edgeLabel;html=1;align=center;verticalAlign=middle;resizable=0;points=[];" parent="1" vertex="1" connectable="0">
                    <mxGeometry x="484.230945022338" y="20.225302846038403" as="geometry">
                        <mxPoint x="-4" y="-4" as="offset"/>
                    </mxGeometry>
                </mxCell>
                <mxCell id="126" value="1" style="edgeLabel;html=1;align=center;verticalAlign=middle;resizable=0;points=[];" parent="1" vertex="1" connectable="0">
                    <mxGeometry x="244.230945022338" y="258.2253028460384" as="geometry">
                        <mxPoint x="-45" y="-45" as="offset"/>
                    </mxGeometry>
                </mxCell>
                <mxCell id="127" value="1" style="edgeLabel;html=1;align=center;verticalAlign=middle;resizable=0;points=[];" parent="1" vertex="1" connectable="0">
                    <mxGeometry x="820.230945022338" y="215.2253028460384" as="geometry">
                        <mxPoint x="-4" y="-4" as="offset"/>
                    </mxGeometry>
                </mxCell>
                <mxCell id="128" value="1..*" style="edgeLabel;html=1;align=center;verticalAlign=middle;resizable=0;points=[];" parent="1" vertex="1" connectable="0">
                    <mxGeometry x="597.230945022338" y="218.2253028460384" as="geometry">
                        <mxPoint x="-4" y="-4" as="offset"/>
                    </mxGeometry>
                </mxCell>
                <mxCell id="129" value="0..*" style="edgeLabel;html=1;align=center;verticalAlign=middle;resizable=0;points=[];" parent="1" vertex="1" connectable="0">
                    <mxGeometry x="561.230945022338" y="173.2253028460384" as="geometry">
                        <mxPoint x="-4" y="-4" as="offset"/>
                    </mxGeometry>
                </mxCell>
                <mxCell id="130" value="0..*" style="edgeLabel;html=1;align=center;verticalAlign=middle;resizable=0;points=[];" parent="1" vertex="1" connectable="0">
                    <mxGeometry x="478.230945022338" y="176.2253028460384" as="geometry">
                        <mxPoint x="-4" y="-4" as="offset"/>
                    </mxGeometry>
                </mxCell>
                <mxCell id="134" value="" style="shape=stencil(lZ3Zkhw3kkW/hq9h2JfnXv5DZqKatNaIMordPfP3Axg7siruzTwhvoklRyQWhy/XF3zIf/nj00+/f/yQwh/fvn7558f/fP7526cP+a8fUvr826ePXz9/W//1If/tQ/7LL1++fvzH1y//+u3n7//+/adNuf/rf778e3/hf7+PS+2YbY9K4f/++5djfP/D37/T//r5tyt9Dj9CX48yhH5GoC9H0/nMAvT5GPb9jvSpX+jzEQLQp6NXpc9AH485lJ7mE49k9APowxN62P84jx5+YP6LPqQf2J84nB8mzacftSt9Avp2jKj8Bvuz6MP8Af6Miz/t+0RflB8WfUX6+EPfz0e1+wj8E9PRku4nnVc8P/fn7teiT7reSfsfjnbd/8U/9P2g57UuKPDnPIqyc4XtH0e7zr6c7P2UvB9jCnmFw+pHvN7FinexHS0KeYWjbUe8nuz6A5zs+piSz0nk8boz/egw98X25UK+dhaOqahUmEcDLjAhvthiIL0olXUNIkwnH/HK9OuaFdIqpw550C+1RFJZhdQSKwP4LKmSiw2lZjqqfH+czPGCPsv+zHMHXtD/9849Lnm42Z8oQj+e1/75LT+mCJEbLXR0EeKLoUgKnsz4oK/Ib/EoImT7zXyyCPGBgiEeUYRauJl/vN6uHM8TfEUvUjCdK3pBH8RoWGIT9ydc9yeXU3a9ohcjqd7wg9I3lD7x1CEP+s5a1OgHWxlGP1nLKX2JqFfiyV0P+sRWm+5/ubsvoirK0nN4XsKfi57Xm6/ysLRTH7ygr1d+K+MoyA/9ut66zFzcH5G3dc0Q939cz6uu+4L3cVz5s+aj437q9+vJ4a/or/xQ2418GNfzrUtb83qFnuW/0bdwaqg/t96WTjP3Ff31fFs+Ndor+iv/tHJzf+eVH1o7EvLnlPkvtwTvl9gDbZxuwCv66/1qE72EdPpYD2MsoJeTVJ70hPNPpw/6oM94f9dpXs+rF/Qq0nn7HvQNrf6kZnnvqF+S8k8fqL+yrXeivs7qVI+AbkVWe2zEm++r9bx2APYzK7+NfGNui307Cs6/nNzyoG+nBfKCfl7Pd3R0XeqRrvw/BqIyVflhBrRnqu7PjOgvND3fyahMO+p1/rOcGvOFIyj6etbTbX5BX6bSEyo29Hzn0hcwn3mkpPQD6eV+zY77s738rANowTGe+vbdAFrBcugEl5k3Ijqrjb4G0B1bLl22RZOTt3y6WnUAWkFNr80aMGgNS6oFHYBo5jKTZNE3jqFpmjUgMV4qeNEaUEjV1KMPHVBJl61NtF/o9AtTtf0aQNoyGyY7WRzlh/X8GDDRnl7ujij8PYAEfFePeE+JNNpUk3QvmlRCVCBuPsCw5wPWBco6gE56+QzDziHBosvDKHvP3gQ6dQVD9xUFqbHcDAHw1oACB7f9DLtxEXZpORp6RVm0Lk9DdP8a0AnHy6ep9W4AGTt1aeesAwg9WM6JDyDQtXa1N9cAilLUYReongz/asA0DTpol6bJ1orSe3k0PoDk0nJpgilpMkqWT+NaPcMatlPTdQBJ7/ZghHd2CUmN5aZEG0COy/JTetQBtEs9no76uwEkNXpS324NSPQLRcGEbYzBti7fIwq3ZmS+3tUcXgM6mXvjRBffDSDZutwPFcYZAYjlf+g5ZEREhkEKkwN3ywNRUZlQLi0XZAQdQKDF8kF61gHkFY6qMNAy6wnmWF6LKvZ4GnXPB4wjm6NBrDGmTSmgp7cmoFIjIPSyN1F8sXlaUM8HWPBjDUBnoKjKGmycbLF1XfRguHua+TPYDN0q8HoOy6EkAG+7F+axkjswux7c4i4cMFSQLf5NYDpMiy2uK0V26zQdt245heimxeKXHCHjZJuEgnt01EBz6Dks4ZnoHMbpUz0GVLzT24a8isob6OnNH3mHbRVeg0TYe2Tm64bmTfaOu8rWxh7KZj7BI5fdSkKgW/CWzZ837/kdQkq29x5gECxBPnuA7FJEUbkt7SsvLZOr8DkIyrKsQDLh9rYKLN/QB9onfeXWbSvzBRLgsHI60eZWQf4DujRrgBxcmafGeDVAjJPlFRG2va/olZdKPf/ycoBEd8qZ2PBSasgvJD6HocJ4eafl5hckgBQQgNuS73rj8uALNPROZwakngxgH+jJgHIiHX92QD6v1MsB13PIie/0UBMuB8wu8oNLE43EPcAi5RQ5m0Ndmpu8lX2B5BfYLdt32pIP8Ip2Zb6df8HSu0j6QUQPZVszkj8R+MYZkrjz9GhKTZ2m2Jn5miKJsfG21ic5L6h2q9reMSNAu+xWgbwiR83XAP2FgGGlZUorqIbuwza9xZJGoGUm9U84zLXoPYeL7nNSA7Gdl+OVcyIIdsU0iml5GvV0JZ7TB82rYZZYfogIsIJ21ZjqXBU0b7e7JwIS07J2VEuTa9GdbD+WTDkspY8Fy3JZJI8roerfUT+5k2i9LJdeknEj2ubD89YQHBqW1xEx7D+C5hWwmdCNfyJjT2YlRHQtlvdk3ycbYdEHmz/w23K2VGChzO1VYaSI93H7ZkPp4Xz7E/4h/lyuXNPvU9rdxv6C0BO+0y1vhMO8PWhkKKKmX36fAOEJTbpFLxhBwuBZM0M5IT+34fKB0uKauY0Z7Y7W1DrLnIFc1SItmNa0fFC5vwXTvrbPqunZxA/LZVVPBdNStot73Z+KaXQtqTF6g8dbXlBFrG/RS1C7ItqyHGjNE2N+C5rXx/R1anzthn5o3tQtvaSBVwSxd1ab0VPUqPv5In1TX/qG3nDNm/lXzdN4JMI8py8KmVREQXcWoq430/yz2ocVEfuaNE+mor7zYGhFfVeD6ouK9kAx9L2ix1DMv+U05NLVfqsYHSsWb6joVC36qPMnUKJU5weSbzsCf11vwzSFnRUsICDKt5IVdW+IwpRkICMnBEQFh2++b/q9obxd9GJfPQ7kKX2eWnfAaXGLPtl8YD/zUP+LS3p2lrvuDznAiz7qfJC+GcaLqEKumsvQMO130UfjH0rUsbzEhv5dzppF09D+X/RB94f8nTc47c1/x6yeaHmwyP85qL3RcX92np7uP2Flaao+eiQ2Pqcfisg3tPcWfVD9SPoidZX/BUOdqWuRGpfvbfbSYl2SJ1u8WvEw0w+1/wkN3epBi1FJX3vuXMSyjGT2eUSkP1W9LxHxorfr/UZPsQovDg+cvtg0Yybwepv7myQ/F73hCZnS0pvvD6V1vImDd/4j76fxG96XpvqOI8xbnFlxOM9HorkZ5dU+L/UfE59XMnqev+SZ3RTPV81hSWhfvZlf7/xx/n5XfA/5zTFxPq+q8UnGo97E8Tv+J/5sar9FbnbQNJDBwczNP0m/z/P5Mfp+uhPv9pPm76EexFuSZTMw3pum6yPUL1P5oWCcdFeJXtdb2T40e5j902WfaMQd8YddVar+Mp1XthTignj7oje8iPy1ZR8Wpceym6rh/IJlzdu+DUJP/JANvy2oT5d9bvELwvPd/ufAvPsXBeWD+y+F/RfzjzgT0/2vgvaD+3cF5b/7jwX9nZKezIfKnrLGaQvih4vemr9gfntxPJbC8cXiQZynWizexGWsjm/kW/ykKD3wZxnqP2aMh5YnzWso3rHxJV0v6dNqfQAy42+Gj2X0Tx1/yygfHN/LaK86fsj6y/HJzPie4Z+Z8T3DVzP6447f3tIbPyC94c+39NPmT+c1Vd4yv7XwZP+5ZqHr/hM/tKj4G9vnO35h9j+cb0vOb6RfvCIinRv8nL7ofUmIzzQrDbiJr1mPnMTxoKbJehHLalvX+Av7y83w58DVGZYLGFAetqn+e2D+mVqbEdAf3FXqTejJfujWtyGgPdmT+l8B/RePRwdu92Tx7oDn5fH0gG2HPF4fEH/2fICb/bd8g4D2pOczBIzfeb4Et+XY+RjKnxRf2/ketl44r51PYvzJ+Srd1kv5KlnregLK81HU3uC2AcMqiAPin6OpPxgRbx9d+wJx/sx4kt9CifC7DETxkMz5WlmSOzGfYT5pBoe1M8HtSUzUjG4/Y66p9a0qnBOZVN/dFEc8ic9ikmb2+Ajh+dP6SHROuy6Kt3CbjVmsihnbnOwCSsk3i3ghZ7OEKkb4dt6rZAxxdeE0CDdWztF0TKph74ZdPWLN27BUw4o240S1/VZg/7hmjAt6ndDuyEK/MC0xqfDN9JvPHfHWAFHFids3TMtdSdxnYA0QsG83JaSDm9rkIgcuc5iqPu7y8f0XMguYaQ4uR9Dm1J6TmUO2e1tFBHcuQrBz2JUXvAYxwgtbFWuASI3CaafTmoQWzsvd3CpTKpi4swYIsF44c8QvULktNxHXu0y0peZQW7zelMENLc+tNxVhVlhUbzL+zV2pHD/fxYKS/3LDS1ZN1W7Kc60AuHGK6B4gIfSb6pGhmNL2Om+2VZJ4bmphrcZm+YVYtjDUzG6PO/gnmW95epSYudlbGnRx5HrfOCk8ZWhsSw1peVbu9INgRf1WAwmYudwxrP2bmg3Zx03XpGB93iY6hPsnpLA6YAbBnBoRHZzyvbdJTL6EPswWfVJ+zr1Z31rnPAZw1Gnzt1TZtDuxIWHj5digRrGCrft6dUk8HtxyaDZtDT0mV5PXJ0X66MsUFRtrALKrFXss9wnFRlJLdzI8tdwlbVPGduiwKzeZW8fQg5uRK268M1vikp5qJWGcczHKs8YbXHSjjTcYBR7WjXp3G7npBWK/gHVAwVpwFUzUWGJLmxoVtBL7UGRuFkxV6t76iatnu+XaTu4Z2u0CzYrVHz1Z3zEOt+/eON5BCIRA8229aRHvjQErcuvuIGQDEJKv1smJc1x3Z9ekA0iz79axNgCrRoKhDg27Y+5eUU0H0C7VaV3yuNFAtcSTyQ3da9fMhNkxdF295WVHhVK9uVTn4GBWc2Y3aKBfSNbpjxsoVis/nR3j3W9doB8DWE+X8aStHsnW0tU/3uY4heyb3emBF6hYFfPkXswlW1/KiSj08oa1V9TE+5C93ecjUen5gG4XaKJsfdoPkZDW3XFRYLjAsZ5stVdzcrKamcZzcpNlazeyjeWb1pe2TZhvbflP+6hpDd7JcqKvmKwibNvv/J5PsV+gmFi0HNWbXplP2qgO5I0njVond8PP9vrIzRrsvYw5uZ95NDt0omCKlul/8wtuCUwOJZia5hcPhu0p9+mwSNEbVvOCXro43Uju9qTzLbaktIvQuDTvibFHqZv1ScdoMqFd2ybWI1pJvxwZCsWWJ13iMJX0SUc2SnXOCvsOjmpkrdwdFeMsWQ2kG9TAXtRZbhOWTqhdOzg0aR3rB0eikmZSbCCG5Khm1nSO4UQFGDobLlFFXOcmsdGee6qIPNmLMT1z62qN3PZ0Nx9p2hYw9GwvnDRW3k4/EP2zF3VaR9Ud1X5vXKpmnVTemr++opf5ZwS2g704kfB8g1p0LaD8t+65lfGsoMbWzYslQTOPKvcwtsyjym+vWWeRnWsJ8iTYCyoJY05BfaGdWwr8E6yTwUR4I1gMbGBqU1D9W7gUNyheWSrq36D3t3C3zKD8XzjYFJT/b15Mcnp+kcnob158cnq2r5yeX6wKar/dvIjl9Nz+2iIPu9YW+VPp8w0/Kz2XOvr+REzlMv7J4YZ/9IU6jrTYQwrLguX5a2emiqn4Zv/ftEYJGgPZFhfLW6l8itg6wPTFlkiov6SSe+ekIL3In+VYErhqDlXkULFVMt28uOidqPhFx6j6Md6Uhtl6I5ciWictDuxlsz8Rdcoaqu837wdZXwis4/A0N2xrob5awbkbPsCa5UmNCwUWmqfUk17plpbEHduUDbjjueVnR+5R7eWi5MPu7oda/oyvFNpbv7f0kkYW+VVDe6uYy7f9LeSI6db+1jKHH/0t5xt6eys6og7yt6hv6a18GEEle0s7soy1chguv/W3wCMje5ZycVP+b2+ZczN+fys9oA3maGlAweNvvd/M396Svymv9meO+S15A4n4fu3uSz/YHsH4gfgzNVOKTG9Brog22G73ofRkE6au4aHIGFHXpFRuR5msyTq/cpy6ywd8NdHo+RVNn0/i9h223oQ2p+9numt/EVXbkQ/r/JCwnaPzW0If6p5+/cfvP3379P0fv3z+9dc/vn398s+P7///L1++fvzH1y//+u3nx5/++PTT7x/Xv/4f);lineShape=1;" parent="1" vertex="1">
                    <mxGeometry x="246.62048703070207" y="468.75879830847543" width="509.776157685874" height="269.8111062392943" as="geometry"/>
                </mxCell>
            </root>
        </mxGraphModel>
    </diagram>
</mxfile>